# xmcd
#
# Track frame offsets: 
#        150
#        14557
#        27754
#        38049
#        51636
#        64251
#        73490
#        85492
#        98956
#        110525
#
# Disc length: 1811 seconds
#
# Revision: 0
# Processed by: cddbd v1.5.2PL0 Copyright (c) Steve Scherf et al.
# Submitted via: ExactAudioCopyFreeDBPlugin 1.0
#
DISCID=9307110a
DTITLE=Sleepy Eyes Nelson - Too Blue to Talk
DYEAR=1900
DGENRE=Blues
TTITLE0=Late in the Evening
TTITLE1=St Vincent Street Blues
TTITLE2=Some Cold Rainy Day
TTITLE3=Moonrise Blues
TTITLE4=Blonde Snapper
TTITLE5=You don't steal from me
TTITLE6=Gamblin' Blues
TTITLE7=Old House covered in Blues
TTITLE8=Power Cut Blues
TTITLE9=Postman Blues and Step it up and go
EXTD=
EXTT0=
EXTT1=
EXTT2=
EXTT3=
EXTT4=
EXTT5=
EXTT6=
EXTT7=
EXTT8=
EXTT9=
PLAYORDER=
